# xmcd
#
# Track frame offsets:
#	182
#	23625
#	44742
#	59507
#	79490
#	98387
#	150350
#	167497
#	181797
#	197402
#	217670
#
# Disc length: 3251 seconds
#
# Revision: 1
# Processed by: cddbd v1.5.1PL0 Copyright (c) Steve Scherf et al.
# Submitted via: audiograbber 1.83.01
#
DISCID=7c0cb10b
DTITLE=Various Artist - Live In Blues
DYEAR=1988
DGENRE=Blues
TTITLE0=Jimmy Dawkins - Feel So Bad
TTITLE1=Abb Locke - Honky Tonk
TTITLE2=Queen Sylvia - Early Time Rock
TTITLE3=Clifton Chenier - Shake It Up
TTITLE4=Big Bill Broonzy - This Train
TTITLE5=Champion Jack Dupree - Mean Ol´ World
TTITLE6=Mickey Baker - St. Louis Blues
TTITLE7=Memphis Slim - I Say Yeah
TTITLE8=Booker T. Laury - Keep On Shakin´ It
TTITLE9=Lester Davenport - I Got A Woman
TTITLE10=Lightnin´ Hopkins - Ma´ and Pa´ Hopkins
EXTD=
EXTT0=
EXTT1=
EXTT2=
EXTT3=
EXTT4=
EXTT5=
EXTT6=
EXTT7=
EXTT8=
EXTT9=
EXTT10=
PLAYORDER=
